<svg xmlns="http://www.w3.org/2000/svg" xmlns:xlink="http://www.w3.org/1999/xlink" width="24" height="24" viewBox="0 0 24 24">
    <defs>
        <path id="vur1fmbiea" d="M7.58 3.503c-.231 0-.46.072-.628.267l-.068.092-2.236 3.076L4.5 18.083c0 .685.255 1.288.674 1.721.382.394.9.647 1.49.69l.179.006h10.314c.664 0 1.25-.263 1.669-.696.381-.393.626-.928.668-1.537l.006-.184V7.396l-2.23-3.484c-.165-.257-.449-.412-.754-.412l-8.936.003zM6.239 8.337H17.76v9.746l-.007.108c-.018.14-.071.258-.156.346-.107.11-.26.169-.44.169H6.842l-.105-.007c-.136-.019-.25-.074-.336-.162-.106-.11-.163-.267-.163-.454V8.337zm2.814 1.247c-.26 0-.476.093-.628.25-.151.156-.241.378-.241.647 0 1.103.42 2.087 1.107 2.795.687.71 1.64 1.143 2.709 1.143 1.069 0 2.022-.434 2.71-1.143.686-.708 1.106-1.692 1.106-2.795 0-.269-.09-.491-.241-.648-.152-.156-.367-.249-.628-.249-.26 0-.476.093-.628.25-.152.156-.241.378-.241.647 0 .607-.225 1.144-.597 1.528-.372.384-.892.616-1.481.616-.589 0-1.109-.232-1.481-.616-.372-.384-.597-.92-.597-1.528 0-.269-.09-.491-.241-.648-.152-.156-.367-.249-.628-.249zM8.014 5.297h7.972l.906 1.247H7.108l.906-1.247z"/>
    </defs>
    <g fill="none" fill-rule="evenodd">
        <g>
            <g>
                <g transform="translate(-384 -786) translate(120 733) translate(264 53)">
                    <path d="M0 0H24V24H0z"/>
                    <use fill="#8A98AD" transform="matrix(-1 0 0 1 24 0)" xlink:href="#vur1fmbiea"/>
                </g>
            </g>
        </g>
    </g>
</svg>
