<svg xmlns="http://www.w3.org/2000/svg" xmlns:xlink="http://www.w3.org/1999/xlink" width="24" height="24" viewBox="0 0 24 24">
    <defs>
        <path id="yiatl06zka" d="M7.285 3.003c-.246 0-.49.076-.67.283l-.072.097L4.158 6.64 4 18.44c0 .726.272 1.365.72 1.823.406.417.959.685 1.588.73L6.5 21h11.002c.708 0 1.332-.278 1.78-.737.407-.416.668-.983.712-1.627l.007-.195V7.126l-2.38-3.693c-.175-.27-.475-.433-.797-.433l-9.538.003zm-1.43 5.119h12.29v10.319l-.007.114c-.02.148-.077.274-.167.367-.114.116-.277.179-.47.179H6.499l-.112-.008c-.145-.02-.267-.079-.358-.171-.113-.117-.174-.283-.174-.481V8.122zm3.002 1.32c-.279 0-.509.098-.67.264-.162.165-.258.4-.258.686 0 1.167.449 2.21 1.181 2.96.733.75 1.75 1.209 2.89 1.209 1.14 0 2.157-.46 2.89-1.21.732-.75 1.18-1.792 1.18-2.96 0-.284-.095-.52-.257-.685-.161-.166-.391-.264-.67-.264-.278 0-.508.098-.67.264-.161.165-.257.4-.257.686 0 .643-.239 1.21-.636 1.618-.398.407-.952.652-1.58.652-.628 0-1.182-.245-1.58-.652-.397-.407-.636-.975-.636-1.618 0-.285-.096-.52-.258-.686-.161-.166-.391-.264-.67-.264zm-1.108-4.54h8.502l.967 1.32H6.782l.967-1.32z"/>
    </defs>
    <g fill="none" fill-rule="evenodd">
        <g>
            <g>
                <g transform="translate(-428 -786) translate(120 733) translate(308 53)">
                    <path d="M0 0H24V24H0z"/>
                    <use fill="#16325C" transform="matrix(-1 0 0 1 24 0)" xlink:href="#yiatl06zka"/>
                </g>
            </g>
        </g>
    </g>
</svg>
