<svg xmlns="http://www.w3.org/2000/svg" width="24" height="24" viewBox="0 0 24 24">
    <g fill="none" fill-rule="evenodd">
        <g>
            <g>
                <path d="M0 0H24V24H0z" transform="translate(-164 -1745) translate(164 1745)"/>
                <path fill="#16325C" d="M18.914 19.579c.324 0 .586.265.586.592v.237c0 .327-.262.592-.586.592H5.086c-.324 0-.586-.265-.586-.592v-.237c0-.327.262-.592.586-.592h13.828zM17.156 6.316c1.295 0 2.344 1.06 2.344 2.368v6.632c0 1.308-1.05 2.368-2.344 2.368H6.844c-1.295 0-2.344-1.06-2.344-2.368V8.684c0-1.308 1.05-2.368 2.344-2.368h10.312zm0 1.776H6.844c-.288 0-.527.21-.577.486l-.01.106v6.632c0 .29.208.532.481.582l.106.01h10.312c.288 0 .527-.21.577-.486l.01-.106V8.684c0-.327-.263-.592-.587-.592zM18.914 3c.324 0 .586.265.586.592v.237c0 .327-.262.592-.586.592H5.086c-.324 0-.586-.265-.586-.592v-.237c0-.327.262-.592.586-.592h13.828z" transform="translate(-164 -1745) translate(164 1745)"/>
            </g>
        </g>
    </g>
</svg>
