<svg xmlns="http://www.w3.org/2000/svg" xmlns:xlink="http://www.w3.org/1999/xlink" width="28" height="28" viewBox="0 0 28 28">
    <defs>
        <path id="0wysz9ccla" d="M23.1 14.046c.773 0 1.4.616 1.4 1.375v7.703c0 .76-.627 1.376-1.4 1.376h-7.84c-.773 0-1.4-.616-1.4-1.376v-7.703c0-.76.627-1.375 1.4-1.375zm-5.264 1.65H15.54v7.153h7.28v-7.152h-2.296v1.727c0 .261-.212.473-.473.473h-1.742c-.261 0-.473-.212-.473-.473v-1.727zm-6.095-1.192c-.06.22-.098.448-.113.682l-.008.235v.917H8.167c-1.587 0-2.8 1.193-2.8 2.752v1.834c0 .55-.374.917-.934.917s-.933-.367-.933-.917V19.09c0-2.568 2.053-4.586 4.667-4.586h3.574zM11.433 3.5c2.614 0 4.667 2.017 4.667 4.585s-2.053 4.585-4.667 4.585c-2.613 0-4.666-2.017-4.666-4.585S8.82 3.5 11.433 3.5zm0 1.834c-1.586 0-2.8 1.192-2.8 2.751 0 1.56 1.214 2.751 2.8 2.751 1.587 0 2.8-1.192 2.8-2.75 0-1.56-1.213-2.752-2.8-2.752z"/>
    </defs>
    <g fill="none" fill-rule="evenodd">
        <g>
            <g>
                <g>
                    <g>
                        <g transform="translate(-34.000000, -247.000000) translate(16.000000, 111.000000) translate(0.000000, 120.000000) translate(12.000000, 10.000000) translate(6.000000, 6.000000)">
                            <path d="M0 0H28V28H0z"/>
                            <use fill="#F06032" xlink:href="#0wysz9ccla"/>
                        </g>
                    </g>
                </g>
            </g>
        </g>
    </g>
</svg>
