<svg xmlns="http://www.w3.org/2000/svg" xmlns:xlink="http://www.w3.org/1999/xlink" width="24" height="24" viewBox="0 0 24 24">
    <defs>
        <path id="b3wdr6ckwa" d="M20.217 11.305V12c0 4.714-3.834 8.5-8.608 8.5C6.835 20.5 3 16.714 3 12s3.835-8.5 8.609-8.5c1.174 0 2.426.232 3.521.773.392.154.548.618.392 1.004-.157.387-.626.541-1.018.387-.939-.387-1.878-.619-2.895-.619-3.913 0-7.044 3.091-7.044 6.955s3.13 6.955 7.044 6.955c3.913 0 7.043-3.091 7.043-6.955v-.695c0-.464.313-.773.783-.773.47 0 .782.309.782.773zm.548-6.8c-.313-.31-.782-.31-1.095 0l-8.061 7.959-1.8-1.778c-.313-.309-.783-.309-1.096 0-.313.31-.313.773 0 1.082l2.348 2.318c.156.155.391.232.548.232.156 0 .391-.077.548-.232l8.608-8.5c.313-.309.313-.772 0-1.081z"/>
    </defs>
    <g fill="none" fill-rule="evenodd">
        <g>
            <g transform="translate(-120 -512) translate(120 512)">
                <path d="M0 0H24V24H0z"/>
                <use fill="#16325C" xlink:href="#b3wdr6ckwa"/>
            </g>
        </g>
    </g>
</svg>
