<svg xmlns="http://www.w3.org/2000/svg" width="24" height="24" viewBox="0 0 24 24">
    <g fill="none" fill-rule="evenodd">
        <g>
            <g>
                <path d="M0 0H24V24H0z" transform="translate(-340 -923) translate(340 923)"/>
                <path fill="#16325C" d="M19 3c1.11 0 2 .9 2 2v14c0 1.1-.89 2-2 2H5c-1.11 0-2-.9-2-2V5c0-1.1.89-2 2-2zm-1.504 4.98c-.538-.524-1.4-.513-1.924.025L10.702 13l-2.246-2.179-.026-.024c-.565-.52-1.444-.484-1.964.08-.538.585-.513 1.491.055 2.046l3.369 3.283c.45.438 1.169.43 1.607-.02l6.022-6.163c.547-.56.55-1.451.007-2.014l-.03-.03z" transform="translate(-340 -923) translate(340 923)"/>
            </g>
        </g>
    </g>
</svg>
