<svg xmlns="http://www.w3.org/2000/svg" width="23" height="23" viewBox="0 0 23 23">
    <g fill="none" fill-rule="evenodd">
        <g>
            <g>
                <g>
                    <path d="M0 0H22V22H0z" transform="translate(-24.000000, -245.000000) translate(0.500000, 223.500000) translate(24.000000, 22.000000)"/>
                    <path fill="#F57C00" d="M9.47 9.742c.092-.242.362-.364.604-.272l8.792 3.336c.133.05.236.159.28.294.08.246-.055.51-.301.59l-1.688.547c-.07.023-.135.062-.187.115-.183.182-.183.479 0 .662l1.737 1.742c.538.539.538 1.412 0 1.95-.54.539-1.412.539-1.951.001l-1.742-1.738c-.052-.052-.116-.09-.186-.114-.246-.08-.51.055-.59.302l-.548 1.688c-.044.135-.146.243-.28.293-.241.092-.512-.03-.604-.272L9.47 10.074c-.04-.107-.04-.225 0-.332zM7.552 12.61c.213 0 .417.085.571.24.25.25.306.63.143.952l-.063.105-.08.094-1.956 1.956c-.317.317-.835.317-1.151 0-.25-.25-.306-.631-.143-.953l.063-.104.08-.094 1.956-1.957c.154-.154.366-.24.58-.24zm-.667-2.935c.448 0 .811.363.811.81 0 .364-.24.676-.591.78l-.11.024-.11.008H3.561c-.448 0-.811-.363-.811-.811 0-.363.24-.675.592-.778l.108-.025.111-.008h3.324zm8.502-4.9c.212 0 .417.085.571.24.25.25.306.631.142.952l-.062.105-.08.094-1.956 1.956c-.317.317-.835.317-1.152 0-.25-.25-.305-.631-.142-.952l.063-.105.08-.094 1.956-1.956c.154-.154.366-.24.58-.24zm-9.8 0c.135 0 .27.034.4.106l.095.06.085.074 1.956 1.956c.317.317.317.835 0 1.151-.25.25-.631.306-.952.143l-.105-.063-.094-.08-1.956-1.956c-.317-.317-.317-.835 0-1.151.154-.155.358-.24.57-.24zm4.9-2.026c.363 0 .675.24.778.592l.025.108.008.111v3.324c0 .448-.363.811-.811.811-.363 0-.675-.24-.778-.591l-.025-.11-.008-.11V3.561c0-.448.363-.811.81-.811z" transform="translate(-24.000000, -245.000000) translate(0.500000, 223.500000) translate(24.000000, 22.000000)"/>
                </g>
            </g>
        </g>
    </g>
</svg>
