<svg xmlns="http://www.w3.org/2000/svg" xmlns:xlink="http://www.w3.org/1999/xlink" width="24" height="24" viewBox="0 0 24 24">
    <defs>
        <path id="ghx1rk8r9a" d="M19.194 4.806c-.445-.445-1.166-.445-1.611 0L12 10.389 6.417 4.806c-.445-.445-1.166-.445-1.611 0-.445.445-.445 1.166 0 1.611L10.389 12l-5.583 5.583c-.445.445-.445 1.166 0 1.611.445.445 1.166.445 1.611 0L12 13.611l5.583 5.583c.445.445 1.166.445 1.611 0 .445-.445.445-1.166 0-1.611L13.611 12l5.583-5.583c.445-.445.445-1.166 0-1.611z"/>
    </defs>
    <g fill="none" fill-rule="evenodd">
        <g>
            <g transform="translate(-208 -375) translate(208 375)">
                <path d="M0 0H24V24H0z"/>
                <use fill="#16325C" xlink:href="#ghx1rk8r9a"/>
            </g>
        </g>
    </g>
</svg>
