<svg xmlns="http://www.w3.org/2000/svg" width="24" height="24" viewBox="0 0 24 24">
    <g fill="none" fill-rule="evenodd">
        <g>
            <g>
                <path d="M0 0H24V24H0z" transform="translate(-208 -1471) translate(208 1471)"/>
                <path fill="#16325C" d="M20.182 15.87c.452 0 .818.366.818.818v.494c0 .452-.366.818-.818.818H3.818C3.366 18 3 17.634 3 17.182v-.494c0-.452.366-.818.818-.818h16.364zM17.953 6c.534 0 1.001.101 1.402.303.4.202.712.474.935.816.222.342.333.726.33 1.15.003.452-.131.828-.402 1.13-.27.301-.623.492-1.056.574v.063l.207.034c.469.095.833.289 1.094.581.299.335.447.752.444 1.253.003.459-.124.867-.38 1.223-.255.357-.607.638-1.055.842-.448.205-.962.307-1.541.307-.564 0-1.066-.102-1.505-.305-.44-.203-.786-.484-1.04-.842-.252-.358-.382-.771-.39-1.24h1.647l.012.114c.025.15.083.284.175.403.114.148.267.262.459.344.191.081.406.122.646.122.249 0 .47-.046.66-.138.192-.092.342-.219.45-.382.108-.162.162-.35.162-.562 0-.215-.057-.406-.171-.572-.115-.167-.279-.297-.491-.392-.213-.094-.466-.141-.758-.141h-.721V9.434h.721l.18-.008c.175-.017.333-.059.476-.126.19-.089.338-.213.443-.372.106-.158.16-.344.16-.556 0-.202-.047-.38-.139-.533-.092-.154-.22-.273-.385-.36-.165-.087-.357-.13-.576-.13-.222 0-.424.041-.608.124-.184.083-.331.2-.442.352-.11.152-.17.33-.178.535h-1.567l.01-.195c.036-.385.16-.729.371-1.032.247-.354.58-.631 1-.832.419-.2.893-.301 1.421-.301zm-11.418.11v8.056H4.899v-6.44h-.045L3.082 8.884v-1.51L4.997 6.11h1.538zM11.032 6c.554 0 1.036.102 1.448.305.412.203.732.484.961.844.23.359.344.77.344 1.235 0 .304-.057.604-.172.9-.114.297-.318.625-.61.986-.292.36-.704.792-1.235 1.296l-1.13 1.152v.055h3.25v1.393H8.371v-1.227l2.754-2.655.169-.173c.161-.168.302-.323.422-.465.16-.189.281-.374.365-.556.083-.183.124-.38.124-.592 0-.236-.051-.44-.155-.612-.103-.172-.244-.304-.423-.397-.178-.093-.381-.14-.608-.14-.236 0-.443.05-.62.15-.175.1-.311.242-.407.428-.096.187-.144.408-.144.665H8.297l.007-.222c.028-.434.14-.818.337-1.15.229-.389.55-.689.963-.901.413-.213.889-.319 1.428-.319z" transform="translate(-208 -1471) translate(208 1471)"/>
            </g>
        </g>
    </g>
</svg>
