<svg xmlns="http://www.w3.org/2000/svg" xmlns:xlink="http://www.w3.org/1999/xlink" width="28" height="28" viewBox="0 0 28 28">
    <defs>
        <path id="hkeqgm02pa" d="M22.653 10.755c-.097-.096-.097-.191-.195-.287l-6.805-6.682c-.097-.095-.195-.19-.292-.19-.097-.096-.292-.096-.389-.096H8.167C6.514 3.5 5.25 4.74 5.25 6.364v15.272c0 1.623 1.264 2.864 2.917 2.864h11.666c1.653 0 2.917-1.24 2.917-2.864v-10.5c0-.095 0-.286-.097-.381zm-6.709-4.01l3.5 3.437h-3.5V6.745zm3.89 15.846H8.166c-.584 0-.973-.382-.973-.955V6.364c0-.573.39-.955.973-.955H14v5.727c0 .573.389.955.972.955h5.834v9.545c0 .573-.39.955-.973.955z"/>
    </defs>
    <g fill="none" fill-rule="evenodd">
        <g>
            <g>
                <g>
                    <g>
                        <g transform="translate(-34 -487) translate(16 111) translate(0 360) translate(12 10) translate(6 6)">
                            <path d="M0 0H28V28H0z"/>
                            <use fill="#7B399B" xlink:href="#hkeqgm02pa"/>
                        </g>
                    </g>
                </g>
            </g>
        </g>
    </g>
</svg>
