<svg xmlns="http://www.w3.org/2000/svg" xmlns:xlink="http://www.w3.org/1999/xlink" width="24" height="24" viewBox="0 0 24 24">
    <defs>
        <path id="5x6t22siea" d="M20.944 11.711C20.794 11.422 17.637 5.5 12 5.5c-5.637 0-8.793 5.922-8.944 6.211-.075.217-.075.433 0 .65.15.217 3.307 6.139 8.944 6.139 5.637 0 8.793-5.922 8.944-6.211.075-.145.075-.433 0-.578zM12 17.056c-4.058 0-6.689-3.9-7.44-5.056.676-1.156 3.382-5.056 7.44-5.056s6.689 3.9 7.44 5.056c-.751 1.156-3.382 5.056-7.44 5.056zm0-7.945c-1.653 0-3.006 1.3-3.006 2.889 0 1.589 1.353 2.889 3.006 2.889 1.653 0 3.006-1.3 3.006-2.889 0-1.589-1.353-2.889-3.006-2.889zm0 4.333c-.827 0-1.503-.65-1.503-1.444 0-.794.676-1.444 1.503-1.444.827 0 1.503.65 1.503 1.444 0 .794-.676 1.444-1.503 1.444z"/>
    </defs>
    <g fill="none" fill-rule="evenodd">
        <g>
            <g transform="translate(-120 -923) translate(120 923)">
                <path d="M0 0H24V24H0z"/>
                <use fill="#16325C" xlink:href="#5x6t22siea"/>
            </g>
        </g>
    </g>
</svg>
