<svg xmlns="http://www.w3.org/2000/svg" xmlns:xlink="http://www.w3.org/1999/xlink" width="24" height="24" viewBox="0 0 24 24">
    <defs>
        <path id="gqj031ldva" d="M9.675 6.375c-.075-.45.15-.825.6-.9C10.8 5.325 11.4 5.25 12 5.25c5.625 0 8.775 6.15 8.925 6.45.075.225.075.45 0 .675-.45.9-1.05 1.725-1.725 2.55-.15.15-.375.3-.6.3-.15 0-.375-.075-.45-.15-.3-.3-.375-.75-.075-1.05.525-.6.975-1.2 1.35-1.875C18.75 10.95 16.05 6.9 12 6.9c-.45 0-.975.075-1.425.15-.375-.075-.75-.3-.9-.675zm11.1 14.4c-.15.15-.3.225-.525.225-.225 0-.375-.075-.525-.225L16.35 17.4c-1.275.9-2.775 1.35-4.35 1.35-5.625 0-8.775-6.15-8.925-6.45-.075-.225-.075-.45 0-.675C3.9 10.05 5.1 8.625 6.45 7.5L3.225 4.275c-.3-.3-.3-.75 0-1.05.3-.3.75-.3 1.05 0l16.5 16.5c.3.3.3.75 0 1.05zm-10.35-8.7c0 .375.15.75.45 1.05.45.375.975.45 1.5.3L10.5 11.55c0 .225-.075.375-.075.525zM15.3 16.35l-1.8-1.725c-.45.3-1.05.45-1.575.45-.75 0-1.5-.3-2.025-.825-.6-.525-.9-1.275-.975-2.1 0-.6.15-1.2.45-1.725L7.5 8.55c-1.125.975-2.1 2.1-2.925 3.45.675 1.2 3.375 5.25 7.425 5.25 1.125 0 2.25-.3 3.3-.9z"/>
    </defs>
    <g fill="none" fill-rule="evenodd">
        <g>
            <g transform="translate(-164 -923) translate(164 923)">
                <path d="M0 0H24V24H0z"/>
                <use fill="#16325C" xlink:href="#gqj031ldva"/>
            </g>
        </g>
    </g>
</svg>
