<svg xmlns="http://www.w3.org/2000/svg" xmlns:xlink="http://www.w3.org/1999/xlink" width="25" height="24" viewBox="0 0 25 24">
    <defs>
        <filter id="9v6jd9pnqa" color-interpolation-filters="auto">
            <feColorMatrix in="SourceGraphic" values="0 0 0 0 0.086275 0 0 0 0 0.196078 0 0 0 0 0.360784 0 0 0 1.000000 0"/>
        </filter>
        <filter id="g931wourob" width="277.8%" height="420%" x="-88.9%" y="-140%" filterUnits="objectBoundingBox">
            <feOffset dy="2" in="SourceAlpha" result="shadowOffsetOuter1"/>
            <feGaussianBlur in="shadowOffsetOuter1" result="shadowBlurOuter1" stdDeviation="5"/>
            <feColorMatrix in="shadowBlurOuter1" values="0 0 0 0 0.0862745098 0 0 0 0 0.196078431 0 0 0 0 0.360784314 0 0 0 0.05 0"/>
        </filter>
        <path id="sryb9ynsmc" d="M15.995 15c.553 0 1 .448 1 1s-.447 1-1 1H7.998c-.552 0-1-.448-1-1s.448-1 1-1h7.997zm2-4c.552 0 1 .448 1 1s-.448 1-1 1H5.999c-.553 0-1-.448-1-1s.447-1 1-1h11.996zm2-4c.552 0 1 .448 1 1s-.448 1-1 1H3.998c-.552 0-1-.448-1-1s.448-1 1-1h15.995z"/>
    </defs>
    <g fill="none" fill-rule="evenodd">
        <g>
            <g>
                <g filter="url(#9v6jd9pnqa)" transform="translate(-62 -176) translate(16 169) translate(46.988 7)">
                    <g>
                        <path d="M0 0H23.994V24H0z"/>
                        <g>
                            <use fill="#000" filter="url(#g931wourob)" xlink:href="#sryb9ynsmc"/>
                            <use fill="#FFF" xlink:href="#sryb9ynsmc"/>
                        </g>
                    </g>
                </g>
            </g>
        </g>
    </g>
</svg>
