<svg xmlns="http://www.w3.org/2000/svg" xmlns:xlink="http://www.w3.org/1999/xlink" width="28" height="28" viewBox="0 0 28 28">
    <defs>
        <path id="3irc49x4fa" d="M22.167 4.55c-.39-.19-.778-.095-1.07.19 0 0-.875.67-3.208.67-1.264 0-2.333-.478-3.5-.86-1.264-.573-2.625-1.05-4.278-1.05C7 3.5 5.736 4.55 5.541 4.74c-.194.192-.291.383-.291.67v18.135c0 .573.389.955.972.955.584 0 .972-.382.972-.955v-6.204c.39-.191 1.362-.477 2.917-.477 1.264 0 2.333.477 3.5.859 1.264.477 2.625 1.05 4.278 1.05 3.111 0 4.375-1.05 4.57-1.241.194-.191.291-.382.291-.668V5.409c0-.382-.194-.668-.583-.859zm-1.361 11.836c-.39.191-1.362.478-2.917.478-1.264 0-2.333-.478-3.5-.86-1.264-.572-2.625-1.05-4.278-1.05-1.264 0-2.236.191-2.917.382v-9.45c.39-.19 1.362-.477 2.917-.477 1.264 0 2.333.477 3.5.86 1.264.572 2.625 1.05 4.278 1.05 1.264 0 2.236-.192 2.917-.383v9.45z"/>
    </defs>
    <g fill="none" fill-rule="evenodd">
        <g>
            <g>
                <g>
                    <g transform="translate(-34 -427) translate(16 411) translate(12 10) translate(6 6)">
                        <path d="M0 0H28V28H0z"/>
                        <use fill="#08A6A0" xlink:href="#3irc49x4fa"/>
                    </g>
                </g>
            </g>
        </g>
    </g>
</svg>
