<svg xmlns="http://www.w3.org/2000/svg" width="24" height="24" viewBox="0 0 24 24">
    <g fill="none" fill-rule="evenodd">
        <g>
            <g>
                <g>
                    <path d="M0 0H24V24H0z" transform="translate(-208 -786) translate(120 733) translate(88 53)"/>
                    <path fill="#8A98AD" d="M13.314 3.471l5.561 4.577c.712.587 1.125 1.46 1.125 2.38v9.543c0 .568-.462 1.029-1.032 1.029h-5.19v-6.029c0-.55-.419-1.001-.955-1.055l-.11-.006h-1.427c-.55 0-1.004.418-1.058.953l-.006.108V21h-5.19C4.462 21 4 20.54 4 19.971v-9.542c0-.921.413-1.794 1.125-2.38l5.56-4.578c.764-.628 1.866-.628 2.63 0zm-1.132 1.367c-.088-.073-.209-.085-.308-.037l-.056.037-5.561 4.577c-.27.222-.439.54-.473.884l-.006.13v8.798h2.666V14.97l.003-.09.005-.108.007-.09c.141-1.388 1.277-2.463 2.666-2.54l.161-.005h1.428l.198.007.09.007c1.392.141 2.471 1.273 2.549 2.658l.005.161v4.256h2.666v-8.798c0-.349-.139-.681-.383-.926l-.096-.088-5.56-4.577z" transform="translate(-208 -786) translate(120 733) translate(88 53)"/>
                </g>
            </g>
        </g>
    </g>
</svg>
