<svg xmlns="http://www.w3.org/2000/svg" xmlns:xlink="http://www.w3.org/1999/xlink" width="30" height="30" viewBox="0 0 30 30">
    <defs>
        <path id="de4k9uhgda" d="M17.503 0H6.68c-.25 0-.5.083-.666.25L.187 6.917c-.25.333-.25.75 0 1.083l5.828 6.667c.166.25.416.333.666.333h10.822C18.918 15 20 13.917 20 12.5v-10C20 1.083 18.918 0 17.503 0zm.832 12.5c0 .5-.333.833-.832.833H7.097L2.019 7.5l5.078-5.833h10.406c.5 0 .832.333.832.833v10zm-2.747-6.917L13.673 7.5l1.915 1.917c.333.333.333.833 0 1.166-.167.167-.333.25-.583.25-.25 0-.416-.083-.583-.25l-1.914-1.916-1.915 1.916c-.166.167-.333.25-.583.25-.25 0-.416-.083-.582-.25-.333-.333-.333-.833 0-1.166L11.342 7.5 9.428 5.583c-.333-.333-.333-.833 0-1.166.333-.334.832-.334 1.165 0l1.915 1.916 1.914-1.916c.333-.334.833-.334 1.166 0 .333.333.333.833 0 1.166z"/>
    </defs>
    <g fill="none" fill-rule="evenodd">
        <g>
            <g>
                <g transform="translate(-330 -53) translate(330 53) translate(5 7.5)">
                    <use fill="#16325C" xlink:href="#de4k9uhgda"/>
                </g>
            </g>
        </g>
    </g>
</svg>
