<svg xmlns="http://www.w3.org/2000/svg" xmlns:xlink="http://www.w3.org/1999/xlink" width="25" height="24" viewBox="0 0 25 24">
    <defs>
        <path id="nbguy7esia" d="M20.555 16.09v2.455c0 1.391-1.108 2.455-2.557 2.455H6.066c-1.449 0-2.557-1.064-2.557-2.455v-2.454c0-.491.341-.818.853-.818.511 0 .852.327.852.818v2.454c0 .491.34.819.852.819h11.932c.511 0 .852-.328.852-.819v-2.454c0-.491.341-.818.852-.818.512 0 .853.327.853.818zm-9.12-.245c.086.082.17.164.256.164.085.082.256.082.341.082.085 0 .256 0 .34-.082.086-.082.171-.082.257-.164l3.409-3.272c.34-.328.34-.818 0-1.146-.341-.327-.853-.327-1.194 0l-1.96 1.882V3.82c0-.492-.34-.819-.852-.819-.511 0-.852.327-.852.818v9.491l-1.96-1.882c-.341-.327-.853-.327-1.194 0-.34.328-.34.818 0 1.146l3.41 3.272z"/>
    </defs>
    <g fill="none" fill-rule="evenodd" opacity=".7">
        <g>
            <g>
                <g>
                    <g transform="translate(-929.000000, -288.000000) translate(676.000000, 218.000000) translate(0.000000, 52.000000) translate(253.674667, 18.000000)">
                        <path d="M0 0H24.064V24H0z"/>
                        <use fill="#8A98AD" xlink:href="#nbguy7esia"/>
                    </g>
                </g>
            </g>
        </g>
    </g>
</svg>
