<svg xmlns="http://www.w3.org/2000/svg" xmlns:xlink="http://www.w3.org/1999/xlink" width="25" height="24" viewBox="0 0 25 24">
    <defs>
        <path id="b04go641xa" d="M19.694 14.784c.746 0 1.294.486 1.356 1.179l.006.132v2.457c0 1.604-1.242 2.856-2.881 2.943l-.184.005H6.073c-1.668 0-2.97-1.195-3.06-2.772l-.005-.176v-2.457c0-.763.57-1.31 1.362-1.31.746 0 1.294.485 1.356 1.178l.006.132v2.457c0 .192.086.299.26.322l.08.005h11.92c.2 0 .31-.082.335-.25l.005-.077v-2.457c0-.763.569-1.31 1.362-1.31zM12.032 2.5c.746 0 1.294.485 1.356 1.178l.006.132v8.313l1.086-1.044c.468-.45 1.157-.51 1.684-.18l.119.083.111.097c.504.485.538 1.217.101 1.734l-.1.108-3.406 3.276-.06.054c-.04.032-.08.057-.125.082l-.085.042.015-.015c-.127.123-.279.182-.448.21-.058.009-.107.013-.164.015h-.165c-.125-.003-.238-.017-.34-.05l-.1-.042-.014-.008h-.01c-.086-.022-.157-.061-.237-.125l-.085-.073-3.501-3.366c-.54-.52-.54-1.322 0-1.842.504-.485 1.264-.517 1.802-.097l.112.097 1.085 1.044V3.81c0-.67.44-1.174 1.084-1.286l.141-.018.138-.006z"/>
    </defs>
    <g fill="none" fill-rule="evenodd">
        <g>
            <g>
                <g>
                    <g transform="translate(-929.000000, -528.000000) translate(676.000000, 218.000000) translate(0.000000, 292.000000) translate(253.674667, 18.000000)">
                        <path d="M0 0H24.064V24H0z"/>
                        <use fill="#16325C" xlink:href="#b04go641xa"/>
                    </g>
                </g>
            </g>
        </g>
    </g>
</svg>
