<svg xmlns="http://www.w3.org/2000/svg" xmlns:xlink="http://www.w3.org/1999/xlink" width="24" height="24" viewBox="0 0 24 24">
    <defs>
        <path id="hpw1j74sla" d="M12 3c-4.99 0-9 4.01-9 9s4.01 9 9 9 9-4.01 9-9-4.01-9-9-9zm0 16.364c-4.09 0-7.364-3.273-7.364-7.364 0-4.09 3.273-7.364 7.364-7.364 4.09 0 7.364 3.273 7.364 7.364 0 4.09-3.273 7.364-7.364 7.364zm.982-7.953v3.927c0 .59-.393.982-.982.982-.59 0-.982-.393-.982-.982v-3.927c0-.59.393-.982.982-.982.59 0 .982.393.982.982zM12 9.447c.542 0 .982-.44.982-.982s-.44-.981-.982-.981-.982.44-.982.981c0 .543.44.982.982.982z"/>
    </defs>
    <g fill="none" fill-rule="evenodd">
        <g>
            <g transform="translate(-208 -512) translate(208 512)">
                <path d="M0 0H24V24H0z"/>
                <use fill="#16325C" xlink:href="#hpw1j74sla"/>
            </g>
        </g>
    </g>
</svg>
