<svg xmlns="http://www.w3.org/2000/svg" xmlns:xlink="http://www.w3.org/1999/xlink" width="28" height="28" viewBox="0 0 28 28">
    <defs>
        <path id="9jbsyjwjea" d="M13.02 23.545c0 .573-.398.955-.993.955H7.062c-1.688 0-2.979-1.24-2.979-2.864V6.364c0-1.623 1.291-2.864 2.98-2.864h4.964c.595 0 .993.382.993.955 0 .572-.398.954-.993.954H7.062c-.596 0-.993.382-.993.955v15.272c0 .573.397.955.993.955h4.965c.595 0 .993.382.993.954zm10.822-9.163c.1-.191.1-.477 0-.764-.1-.095-.1-.19-.198-.286l-3.972-3.818c-.397-.382-.993-.382-1.39 0-.397.381-.397.954 0 1.336l2.284 2.195h-9.532c-.596 0-.993.382-.993.955s.397.955.993.955h9.532l-2.284 2.195c-.397.382-.397.955 0 1.336.198.191.496.287.695.287.199 0 .496-.096.695-.287l3.972-3.818c.099-.095.198-.19.198-.286z"/>
    </defs>
    <g fill="none" fill-rule="evenodd">
        <g>
            <g>
                <g>
                    <g>
                        <g transform="translate(-34.000000, -187.000000) translate(16.000000, 111.000000) translate(0.000000, 60.000000) translate(12.000000, 10.000000) translate(6.000000, 6.000000)">
                            <path d="M0 0H28V28H0z"/>
                            <use fill="#3A4AAE" xlink:href="#9jbsyjwjea"/>
                        </g>
                    </g>
                </g>
            </g>
        </g>
    </g>
</svg>
