<svg xmlns="http://www.w3.org/2000/svg" width="24" height="24" viewBox="0 0 24 24">
    <g fill="none" fill-rule="evenodd">
        <g>
            <g>
                <g>
                    <path d="M0 0H24V24H0z" transform="translate(-296 -786) translate(120 733) translate(176 53)"/>
                    <path fill="#8A98AD" d="M19.941 17.357c.585 0 1.059.48 1.059 1.072 0 .549-.409 1.002-.935 1.064l-.124.007H4.06C3.474 19.5 3 19.02 3 18.429c0-.55.409-1.003.935-1.065l.124-.007H19.94zm0-6.428c.585 0 1.059.48 1.059 1.071 0 .55-.409 1.002-.935 1.064l-.124.007H4.06C3.474 13.071 3 12.591 3 12c0-.55.409-1.002.935-1.064l.124-.007H19.94zm0-6.429c.585 0 1.059.48 1.059 1.071 0 .55-.409 1.003-.935 1.065l-.124.007H4.06C3.474 6.643 3 6.163 3 5.57c0-.549.409-1.002.935-1.064L4.06 4.5H19.94z" transform="translate(-296 -786) translate(120 733) translate(176 53)"/>
                </g>
            </g>
        </g>
    </g>
</svg>
