<svg xmlns="http://www.w3.org/2000/svg" width="24" height="24" viewBox="0 0 24 24">
    <g fill="none" fill-rule="evenodd">
        <g>
            <g>
                <g>
                    <path d="M0 0H24V24H0z" transform="translate(-340 -786) translate(120 733) translate(220 53)"/>
                    <path fill="#16325C" d="M20.097 16.829c.387 0 .738.15.992.391.254.242.411.576.411.944 0 .341-.134.652-.354.888-.195.208-.458.358-.755.418l-.15.023-16.338.007c-.387 0-.738-.15-.992-.391-.254-.242-.411-.576-.411-.945 0-.34.134-.651.354-.887.195-.208.458-.358.755-.419l.15-.022 16.338-.007zm0-6.165c.387 0 .738.15.992.392.254.241.411.575.411.944 0 .34-.134.651-.354.887-.195.209-.458.359-.755.419l-.15.023-16.338.007c-.387 0-.738-.15-.992-.392-.254-.241-.411-.575-.411-.944 0-.34.134-.651.354-.887.195-.209.458-.359.755-.419l.15-.023 16.338-.007zm0-6.164c.387 0 .738.15.992.391.254.242.411.576.411.945 0 .34-.134.651-.354.887-.195.208-.458.358-.755.419l-.15.022-16.338.007c-.387 0-.738-.15-.992-.391-.254-.242-.411-.576-.411-.944 0-.341.134-.652.354-.888.195-.208.458-.358.755-.418l.15-.023L20.098 4.5z" transform="translate(-340 -786) translate(120 733) translate(220 53)"/>
                </g>
            </g>
        </g>
    </g>
</svg>
