<svg xmlns="http://www.w3.org/2000/svg" width="24" height="24" viewBox="0 0 24 24">
    <g fill="none" fill-rule="evenodd">
        <g>
            <g transform="translate(-340 -1197) translate(340 1197)">
                <path d="M0 0H24V24H0z"/>
                <path fill="#16325C" d="M13.384 18.548c.616 0 1 .683.692 1.229C13.646 20.534 12.856 21 12 21c-.856 0-1.646-.466-2.076-1.223-.309-.546.076-1.229.692-1.229h2.768zM12 3c.522 0 1.027.073 1.506.21-.455.402-.827.894-1.087 1.449-.137-.015-.277-.022-.419-.022-2.15 0-3.905 1.736-3.996 3.914l-.007.55c-.043 2.46-.517 4.392-1.294 5.85-.06.113-.12.22-.182.324H17.48l-.128-.225-.126-.237c-.517-1.016-.89-2.251-1.082-3.723.1.007.2.01.301.01.449 0 .882-.066 1.29-.19.167 1.267.483 2.309.91 3.147.224.44.462.79.7 1.061.14.16.249.258.302.297l.082.064c.544.48.223 1.432-.53 1.432H4.802c-.76 0-1.076-.967-.518-1.442l.093-.07.063-.056c.04-.037.093-.09.157-.158.234-.253.474-.589.703-1.018.65-1.219 1.06-2.889 1.099-5.087l.006-.549C6.506 5.46 8.972 3 12 3z"/>
                <rect width="5" height="5" x="14" y="4" fill="#F14242" rx="2.5"/>
            </g>
        </g>
    </g>
</svg>
