<svg xmlns="http://www.w3.org/2000/svg" width="24" height="24" viewBox="0 0 24 24">
    <g fill="none" fill-rule="evenodd">
        <g>
            <g>
                <path d="M0 0H24V24H0z" transform="translate(-296 -1197) translate(296 1197)"/>
                <path fill="#16325C" d="M13.384 18.548c.616 0 1 .683.692 1.229C13.646 20.534 12.856 21 12 21c-.856 0-1.646-.466-2.076-1.223-.309-.546.076-1.229.692-1.229h2.768zM12 3c3.092 0 5.599 2.565 5.599 5.728 0 2.301.394 4.05 1.045 5.33.224.44.462.79.7 1.06.14.16.249.258.302.297l.082.064c.544.48.223 1.432-.53 1.432H4.802c-.76 0-1.076-.967-.518-1.442l.093-.07.063-.056c.04-.037.093-.09.157-.158.234-.253.474-.589.703-1.018.65-1.219 1.06-2.889 1.099-5.087l.006-.549C6.506 5.46 8.972 3 12 3zm0 1.637c-2.15 0-3.905 1.736-3.996 3.914l-.007.55c-.043 2.46-.517 4.392-1.294 5.85-.06.113-.12.22-.182.324H17.48l-.128-.225-.126-.237C16.452 13.294 16 11.285 16 8.728c0-2.26-1.79-4.091-3.999-4.091z" transform="translate(-296 -1197) translate(296 1197)"/>
            </g>
        </g>
    </g>
</svg>
