<svg width="23" height="23" xmlns="http://www.w3.org/2000/svg">
    <g fill="none" fill-rule="evenodd">
        <path d="M.5.5h22v22H.5z"/>
        <path d="M9.97 10.242a.469.469 0 0 1 .604-.272l8.792 3.336a.469.469 0 0 1-.021.884l-1.688.547a.469.469 0 0 0-.188.777l1.738 1.742a1.38 1.38 0 0 1-1.951 1.951l-1.742-1.738a.469.469 0 0 0-.777.188l-.547 1.688a.469.469 0 0 1-.884.021L9.97 10.574a.469.469 0 0 1 0-.332zM8.052 13.11a.816.816 0 0 1 .714 1.192l-.063.105-.08.094-1.956 1.956a.816.816 0 0 1-1.151 0 .816.816 0 0 1-.143-.953l.063-.104.08-.094 1.956-1.957a.826.826 0 0 1 .58-.24zm-.667-2.935c.448 0 .811.363.811.81a.81.81 0 0 1-.591.78l-.11.024-.11.008H4.061a.81.81 0 0 1-.22-1.59l.11-.024.11-.008h3.324zm8.502-4.9a.816.816 0 0 1 .714 1.192l-.063.105-.08.094-1.956 1.956a.816.816 0 0 1-1.152 0 .816.816 0 0 1-.142-.952l.063-.105.08-.094 1.956-1.956a.826.826 0 0 1 .58-.24zm-9.8 0c.135 0 .27.034.4.106l.095.06.085.074 1.956 1.956a.816.816 0 0 1 0 1.151.816.816 0 0 1-.952.143l-.105-.063-.094-.08-1.956-1.956a.816.816 0 0 1 .57-1.391zm4.9-2.026a.81.81 0 0 1 .778.592l.025.108.008.111v3.324a.81.81 0 0 1-1.59.22l-.024-.11-.008-.11V4.061c0-.448.363-.811.81-.811z" fill="#F57C00"/>
    </g>
</svg>
