<svg xmlns="http://www.w3.org/2000/svg" xmlns:xlink="http://www.w3.org/1999/xlink" width="25" height="24" viewBox="0 0 25 24">
    <defs>
        <path id="sdx9fp8v6a" d="M19.694 14.778c.746 0 1.294.486 1.356 1.179l.006.132v2.46c0 1.606-1.242 2.859-2.881 2.946l-.184.005H6.073c-1.668 0-2.97-1.196-3.06-2.774l-.005-.177v-2.46c0-.763.57-1.311 1.362-1.311.746 0 1.295.486 1.356 1.179l.006.132v2.46c0 .193.086.3.26.323l.08.005h11.92c.2 0 .31-.082.335-.25l.005-.078v-2.46c0-.763.569-1.311 1.362-1.311zM12.465 2.56l.02.007.086.015c.086.021.157.06.237.124l.085.073.096.09 3.406 3.28c.54.52.54 1.323 0 1.843-.272.261-.572.39-.958.39-.33 0-.598-.095-.839-.286l-.118-.104-1.086-1.046v8.323c0 .67-.439 1.175-1.083 1.288l-.141.018-.138.006c-.746 0-1.294-.486-1.356-1.18l-.006-.132V6.946L9.583 7.992c-.468.45-1.157.51-1.684.18l-.119-.083-.112-.097c-.503-.485-.537-1.217-.1-1.735l.1-.108 3.406-3.28c.063-.06.116-.098.185-.135l.082-.041.073-.07.115-.036c.32-.103.655-.118.935-.027z"/>
    </defs>
    <g fill="none" fill-rule="evenodd">
        <g>
            <g>
                <g>
                    <g transform="translate(-774.000000, -368.000000) translate(676.000000, 218.000000) translate(0.000000, 132.000000) translate(98.261333, 18.000000)">
                        <path d="M0 0H24.064V24H0z"/>
                        <use fill="#16325C" xlink:href="#sdx9fp8v6a"/>
                    </g>
                </g>
            </g>
        </g>
    </g>
</svg>
