<svg xmlns="http://www.w3.org/2000/svg" xmlns:xlink="http://www.w3.org/1999/xlink" width="25" height="24" viewBox="0 0 25 24">
    <defs>
        <path id="djf0fcfq1a" d="M20.555 16.085v2.458c0 1.392-1.108 2.457-2.557 2.457H6.066c-1.449 0-2.557-1.065-2.557-2.457v-2.458c0-.491.341-.819.853-.819.511 0 .852.328.852.82v2.457c0 .491.34.819.852.819h11.932c.511 0 .852-.328.852-.82v-2.457c0-.491.341-.819.852-.819.512 0 .853.328.853.82zM9.22 7.648l1.96-1.883v9.501c0 .492.34.82.852.82.511 0 .852-.328.852-.82V5.765l1.96 1.883c.17.164.341.246.597.246.256 0 .426-.082.597-.246.34-.327.34-.819 0-1.146l-3.41-3.277c-.085-.082-.17-.164-.255-.164-.17-.081-.426-.081-.682 0-.085.082-.17.082-.256.164L8.026 6.502c-.34.327-.34.819 0 1.146.341.328.853.328 1.194 0z"/>
    </defs>
    <g fill="none" fill-rule="evenodd" opacity=".703">
        <g>
            <g>
                <g>
                    <g transform="translate(-774.000000, -288.000000) translate(676.000000, 218.000000) translate(0.000000, 52.000000) translate(98.261333, 18.000000)">
                        <path d="M0 0H24.064V24H0z"/>
                        <use fill="#8A98AD" xlink:href="#djf0fcfq1a"/>
                    </g>
                </g>
            </g>
        </g>
    </g>
</svg>
