<svg xmlns="http://www.w3.org/2000/svg" width="28" height="28" viewBox="0 0 28 28">
    <g fill="none" fill-rule="evenodd">
        <g>
            <g>
                <g>
                    <g>
                        <g>
                            <path d="M0 0H28V28H0z" transform="translate(-34.000000, -127.000000) translate(16.000000, 111.000000) translate(0.000000, -0.000000) translate(12.000000, 10.000000) translate(6.000000, 6.000000)"/>
                            <path fill="#08A6A0" d="M8.692 10.24l1.155 1.002-1.641.78 5.59 2.651.204.178.206-.18 5.585-2.65-1.642-.78 1.126-.98 1.63.773c.762.33 1.2.965 1.256 1.68l.006.153v6.698c0 .79-.453 1.456-1.117 1.828l-.145.075-5.94 2.82c-.297.141-.594.212-.965.212-.238 0-.523-.045-.78-.135l-.185-.077-5.94-2.82c-.762-.329-1.2-1.026-1.256-1.748l-.006-.155v-6.698c0-.72.384-1.38 1.034-1.752l.154-.08 1.671-.795zm-1.374 2.91v6.485c0 .182.11.415.28.566l.091.069 5.569 2.608V15.97l-5.94-2.82zm13.364 0l-5.94 2.82v6.908l5.494-2.608c.26-.123.406-.3.439-.532l.007-.103V13.15zM14 3.5c.394 0 .713.308.713.689v5.91l1.634-1.577.088-.073c.279-.193.67-.17.92.073.278.269.278.705 0 .974l-2.851 2.754-.068.058-.094.06-.12.05-.092.022-.077.01h-.106l-.051-.006-.119-.027-.075-.028-.089-.047c-.041-.026-.08-.057-.117-.092l-2.85-2.754-.076-.086c-.2-.269-.175-.646.075-.888l.088-.073c.279-.193.67-.17.92.073l1.634 1.578V4.189l.007-.094c.047-.336.345-.595.706-.595z" transform="translate(-34.000000, -127.000000) translate(16.000000, 111.000000) translate(0.000000, -0.000000) translate(12.000000, 10.000000) translate(6.000000, 6.000000)"/>
                        </g>
                    </g>
                </g>
            </g>
        </g>
    </g>
</svg>
