<svg xmlns="http://www.w3.org/2000/svg" xmlns:xlink="http://www.w3.org/1999/xlink" width="28" height="28" viewBox="0 0 28 28">
    <defs>
        <path id="29ocfl9l0a" d="M22.384 7.359l-7.212-3.59c-.721-.359-1.623-.359-2.434 0L5.526 7.36c-.902.449-1.443 1.346-1.443 2.333v8.526c0 .987.541 1.974 1.533 2.423l7.212 3.59c.36.18.811.269 1.172.269.45 0 .811-.09 1.172-.27l7.212-3.589c.902-.449 1.533-1.346 1.533-2.423V9.692c0-.987-.541-1.884-1.533-2.333zM13.64 5.295c.09-.09.27-.09.361-.09.18 0 .27 0 .36.09l6.672 3.32-2.524 1.257-7.032-3.5 2.163-1.077zm-.54 17.14l-6.762-3.32c-.27-.18-.45-.538-.45-.807V10.05l7.211 3.59v8.795zm-6.13-13.82L9.491 7.36l7.032 3.5L14 12.115l-7.032-3.5zm15.145 9.693c0 .359-.18.628-.541.807l-6.671 3.32v-8.794l7.212-3.59v8.257z"/>
    </defs>
    <g fill="none" fill-rule="evenodd">
        <g>
            <g>
                <g>
                    <g>
                        <g transform="translate(-34.000000, -127.000000) translate(16.000000, 111.000000) translate(0.000000, -0.000000) translate(12.000000, 10.000000) translate(6.000000, 6.000000)">
                            <path d="M0 0H28V28H0z"/>
                            <use fill="#FEC453" xlink:href="#29ocfl9l0a"/>
                        </g>
                    </g>
                </g>
            </g>
        </g>
    </g>
</svg>
