<svg xmlns="http://www.w3.org/2000/svg" xmlns:xlink="http://www.w3.org/1999/xlink" width="28" height="28" viewBox="0 0 28 28">
    <defs>
        <path id="l4skbn13sa" d="M21.636 10.394h-.954v-5.41c0-.54-.382-.9-.955-.9H8.273c-.573 0-.955.36-.955.9v5.41h-.954c-1.623 0-2.864 1.172-2.864 2.704v4.508c0 1.533 1.24 2.705 2.864 2.705h.954v2.704c0 .541.382.902.955.902h11.454c.573 0 .955-.36.955-.902v-2.704h.954c1.623 0 2.864-1.172 2.864-2.705v-4.508c0-1.532-1.24-2.704-2.864-2.704zM9.227 5.886h9.546v4.508H9.227V5.886zm9.546 16.228H9.227v-5.41h9.546v5.41zm3.818-4.508c0 .541-.382.902-.955.902h-.954v-2.705c0-.54-.382-.901-.955-.901H8.273c-.573 0-.955.36-.955.901v2.705h-.954c-.573 0-.955-.361-.955-.902v-4.508c0-.54.382-.901.955-.901h15.272c.573 0 .955.36.955.901v4.508z"/>
    </defs>
    <g fill="none" fill-rule="evenodd">
        <g>
            <g>
                <g>
                    <g>
                        <g transform="translate(-34 -307) translate(16 111) translate(0 180) translate(12 10) translate(6 6)">
                            <path d="M0 0H28V28H0z"/>
                            <use fill="#FEC453" xlink:href="#l4skbn13sa"/>
                        </g>
                    </g>
                </g>
            </g>
        </g>
    </g>
</svg>
