<svg xmlns="http://www.w3.org/2000/svg" xmlns:xlink="http://www.w3.org/1999/xlink" width="28" height="28" viewBox="0 0 28 28">
    <defs>
        <path id="s0wsvkqtja" d="M21.636 10.182h-.954V4.455c0-.573-.382-.955-.955-.955H8.273c-.573 0-.955.382-.955.955v5.727h-.954c-1.623 0-2.864 1.24-2.864 2.863v4.773c0 1.623 1.24 2.864 2.864 2.864h.954v2.863c0 .573.382.955.955.955h11.454c.573 0 .955-.382.955-.955v-2.863h.954c1.623 0 2.864-1.241 2.864-2.864v-4.773c0-1.622-1.24-2.863-2.864-2.863zM9.227 5.409h9.546v4.773H9.227V5.409zm9.546 17.182H9.227v-5.727h9.546v5.727zm-1.192-2.369c.277 0 .502.348.502.778 0 .43-.225.778-.502.778H10.42c-.277 0-.502-.348-.502-.778 0-.43.225-.778.502-.778h7.162zm0-2.333c.277 0 .502.348.502.778 0 .43-.225.777-.502.777H10.42c-.277 0-.502-.347-.502-.777 0-.43.225-.778.502-.778h7.162zm4.055-5.798c.573 0 .955.382.955.954v4.773c0 .573-.382.955-.955.955h-.954v-2.864c0-.573-.382-.954-.955-.954H8.273c-.573 0-.955.381-.955.954v2.864h-.954c-.573 0-.955-.382-.955-.955v-4.773c0-.572.382-.954.955-.954h15.272z"/>
    </defs>
    <g fill="none" fill-rule="evenodd">
        <g>
            <g>
                <g>
                    <g>
                        <g transform="translate(-34 -367) translate(16 111) translate(0 240) translate(12 10) translate(6 6)">
                            <path d="M0 0H28V28H0z"/>
                            <use fill="#AF5CD8" xlink:href="#s0wsvkqtja"/>
                        </g>
                    </g>
                </g>
            </g>
        </g>
    </g>
</svg>
