<svg xmlns="http://www.w3.org/2000/svg" xmlns:xlink="http://www.w3.org/1999/xlink" width="28" height="28" viewBox="0 0 28 28">
    <defs>
        <path id="nn6jyiykza" d="M17.982 23.904c-1.055.397-2.11.596-3.165.596-3.932 0-7.673-2.583-9.015-6.655-.192-.497.096-1.093.575-1.292.48-.198 1.055.1 1.247.596 1.438 4.172 5.754 6.358 9.782 4.868 4.028-1.49 6.138-5.96 4.7-10.132-.672-1.987-2.11-3.576-3.933-4.57-1.822-.893-3.932-.993-5.85-.297-1.055.397-2.11.993-2.877 1.887l-2.781 2.682h3.356c.576 0 .96.397.96.993s-.384.994-.96.994H4.075 3.98l-.096-.1c-.096 0-.096-.1-.192-.1 0 0 0-.098-.096-.098 0-.1-.096-.1-.096-.2v-.198V6.62c0-.596.384-.993.959-.993s.96.397.96.993v3.676l2.876-2.782c.96-.993 2.206-1.788 3.549-2.284 2.397-.894 4.987-.696 7.288.397 2.302 1.192 4.028 3.179 4.892 5.662 1.63 5.165-1.055 10.827-6.042 12.615z"/>
    </defs>
    <g fill="none" fill-rule="evenodd">
        <g>
            <g>
                <g>
                    <g transform="translate(-34 -248) translate(16 232) translate(12 10) translate(6 6)">
                        <path d="M0 0H28V28H0z"/>
                        <use fill="#F06032" xlink:href="#nn6jyiykza"/>
                    </g>
                </g>
            </g>
        </g>
    </g>
</svg>
