<svg xmlns="http://www.w3.org/2000/svg" xmlns:xlink="http://www.w3.org/1999/xlink" width="28" height="28" viewBox="0 0 28 28">
    <defs>
        <path id="le4qnh4k4a" d="M10.162 13.58c-.74.28-1.48.42-2.22.42-2.76 0-5.385-1.823-6.327-4.698-.134-.35.068-.771.404-.911.337-.14.74.07.875.42 1.01 2.945 4.038 4.488 6.865 3.436 2.826-1.052 4.307-4.207 3.297-7.152-.47-1.402-1.48-2.524-2.759-3.225-1.279-.631-2.76-.701-4.105-.21-.74.28-1.48.7-2.02 1.332L2.222 4.885h2.355c.404 0 .673.28.673.701 0 .42-.269.701-.673.701H.404.337l-.068-.07c-.067 0-.067-.07-.134-.07 0 0 0-.07-.068-.07 0-.07-.067-.07-.067-.14v-.14-4.418C0 .959.27.678.673.678c.404 0 .673.28.673.701v2.594l2.02-1.963C4.037 1.31 4.912.748 5.855.397c1.682-.63 3.499-.49 5.114.28 1.615.842 2.827 2.245 3.432 3.998 1.145 3.646-.74 7.642-4.24 8.904z"/>
    </defs>
    <g fill="none" fill-rule="evenodd">
        <g>
            <g>
                <g>
                    <g>
                        <g>
                            <path d="M0 0H28V28H0z" transform="translate(-34 -187) translate(16 111) translate(0 60) translate(12 10) translate(6 6)"/>
                            <g transform="translate(-34 -187) translate(16 111) translate(0 60) translate(12 10) translate(6 6) translate(2.917 7)">
                                <use fill="#F14242" xlink:href="#le4qnh4k4a"/>
                                <path fill="#F14242" d="M22.412 6.364H20.57v-1.91c0-.572-.368-.954-.92-.954-.554 0-.922.382-.922.955v1.909h-1.842c-.553 0-.921.381-.921.954s.368.955.921.955h1.842v1.909c0 .573.368.954.921.954s.921-.381.921-.954v-1.91h1.842c.553 0 .921-.381.921-.954s-.368-.954-.92-.954z"/>
                            </g>
                        </g>
                    </g>
                </g>
            </g>
        </g>
    </g>
</svg>
