<svg xmlns="http://www.w3.org/2000/svg" width="24" height="24" viewBox="0 0 24 24">
    <g fill="none" fill-rule="evenodd">
        <g>
            <g>
                <g>
                    <g>
                        <path d="M0 0H24V24H0z" transform="translate(-327.000000, -129.000000) translate(16.000000, 111.000000) translate(0.000000, -0.000000) translate(311.000000, 18.000000)"/>
                        <path fill="#16325C" d="M16.625 18.814c.5.515.5 1.286 0 1.8-.25.257-.5.386-.875.386s-.625-.129-.875-.386l-7.5-7.714c-.5-.514-.5-1.286 0-1.8l7.5-7.714c.5-.515 1.25-.515 1.75 0 .5.514.5 1.285 0 1.8L10 12l6.625 6.814z" transform="translate(-327.000000, -129.000000) translate(16.000000, 111.000000) translate(0.000000, -0.000000) translate(311.000000, 18.000000) translate(12.000000, 12.000000) scale(-1, 1) translate(-12.000000, -12.000000)"/>
                    </g>
                </g>
            </g>
        </g>
    </g>
</svg>
