<svg xmlns="http://www.w3.org/2000/svg" xmlns:xlink="http://www.w3.org/1999/xlink" width="24" height="24" viewBox="0 0 24 24">
    <defs>
        <path id="kmqotuy3ga" d="M20.73 19.47l-4.05-4.05c.99-1.26 1.62-2.97 1.62-4.77C18.3 6.42 14.88 3 10.65 3S3 6.42 3 10.65s3.42 7.65 7.65 7.65c1.8 0 3.42-.63 4.77-1.62l4.05 4.05c.18.18.45.27.63.27s.45-.09.63-.27c.36-.36.36-.9 0-1.26zM4.8 10.65c0-3.24 2.61-5.85 5.85-5.85 3.24 0 5.85 2.61 5.85 5.85 0 1.62-.63 3.06-1.71 4.14-1.08 1.08-2.52 1.71-4.14 1.71-3.24 0-5.85-2.61-5.85-5.85z"/>
    </defs>
    <g fill="none" fill-rule="evenodd">
        <g>
            <g transform="translate(-748 -375) translate(748 375)">
                <path d="M0 0H24V24H0z"/>
                <use fill="#16325C" xlink:href="#kmqotuy3ga"/>
            </g>
        </g>
    </g>
</svg>
