<svg xmlns="http://www.w3.org/2000/svg" xmlns:xlink="http://www.w3.org/1999/xlink" width="28" height="28" viewBox="0 0 28 28">
    <defs>
        <path id="s4krh4pjca" d="M14 10.5c-1.925 0-3.5 1.575-3.5 3.5s1.575 3.5 3.5 3.5 3.5-1.575 3.5-3.5-1.575-3.5-3.5-3.5zm0 5.25c-.963 0-1.75-.787-1.75-1.75s.787-1.75 1.75-1.75 1.75.787 1.75 1.75-.787 1.75-1.75 1.75zm7.262 1.225c.088-.175.263-.35.613-.35 1.488 0 2.625-1.137 2.625-2.625s-1.137-2.625-2.625-2.625H21.7c-.175 0-.35-.088-.438-.262 0-.088 0-.088-.087-.175-.088-.176-.088-.438.175-.7 1.05-1.05 1.05-2.713 0-3.675-.525-.526-1.138-.788-1.838-.788-.7 0-1.4.262-1.925.787-.174.175-.437.175-.612.088-.175 0-.35-.263-.35-.525C16.625 4.638 15.488 3.5 14 3.5s-2.625 1.138-2.625 2.625V6.3c0 .175-.088.35-.262.438-.088 0-.088 0-.175.087-.176.087-.438 0-.7-.175-1.05-1.05-2.713-1.05-3.675 0-1.05 1.05-1.05 2.713.087 3.762.175.175.175.438.087.7-.087.175-.35.35-.612.35-1.487 0-2.625 1.138-2.625 2.626 0 1.487 1.138 2.624 2.625 2.624H6.3c.263 0 .438.175.525.35.087.175.087.438-.175.7-.525.526-.788 1.138-.788 1.838 0 .7.263 1.313.788 1.837 1.05 1.05 2.713 1.05 3.762-.087.175-.175.438-.175.7-.088.263.088.35.263.35.613 0 1.488 1.138 2.625 2.626 2.625 1.487 0 2.624-1.137 2.624-2.625V21.7c0-.262.175-.438.35-.525.175-.088.438-.088.7.175 1.05 1.05 2.713 1.05 3.675 0 1.05-1.05 1.05-2.713-.087-3.763-.088-.174-.175-.437-.088-.612zm-1.575-.7c-.35.875-.175 1.838.525 2.625.175.175.263.35.263.613 0 .262-.088.437-.263.612-.174.175-.35.262-.612.262-.263 0-.438-.087-.7-.35-.7-.7-1.662-.874-2.537-.437-.875.35-1.4 1.225-1.4 2.1v.175c0 .525-.35.875-.875.875s-.875-.35-.875-.875v-.087c0-.963-.613-1.75-1.488-2.1-.262-.175-.612-.175-.963-.175-.612 0-1.225.262-1.662.7-.35.35-.875.35-1.225 0-.175-.175-.263-.35-.263-.613s.088-.438.35-.7c.7-.7.876-1.662.438-2.537-.35-.875-1.225-1.4-2.1-1.4h-.175c-.525 0-.875-.35-.875-.875s.35-.875.875-.875h.088c.962 0 1.75-.613 2.1-1.488.35-.875.175-1.838-.526-2.625-.35-.35-.35-.875 0-1.225.35-.35.875-.35 1.313.088.613.612 1.575.787 2.363.525.087 0 .175 0 .262-.088.875-.35 1.4-1.225 1.4-2.1v-.175c0-.525.35-.875.875-.875s.875.35.875.963c0 .962.525 1.75 1.4 2.1.875.35 1.838.175 2.625-.526.175-.175.35-.262.613-.262.262 0 .437.087.612.262.35.35.35.875-.087 1.313-.613.613-.788 1.575-.526 2.363 0 .087 0 .175.088.262.35.875 1.225 1.4 2.1 1.4h.175c.525 0 .875.35.875.875s-.35.875-.962.875c-.875 0-1.75.525-2.1 1.4z"/>
    </defs>
    <g fill="none" fill-rule="evenodd">
        <g>
            <g>
                <g>
                    <g>
                        <g transform="translate(-34 -547) translate(16 111) translate(0 420) translate(12 10) translate(6 6)">
                            <path d="M0 0H28V28H0z"/>
                            <use fill="#3A4AAE" xlink:href="#s4krh4pjca"/>
                        </g>
                    </g>
                </g>
            </g>
        </g>
    </g>
</svg>
