<svg xmlns="http://www.w3.org/2000/svg" xmlns:xlink="http://www.w3.org/1999/xlink" width="24" height="24" viewBox="0 0 24 24">
    <defs>
        <path id="a5ziq8s5ha" d="M19.5 11.99v6.553C19.5 19.935 18.417 21 17 21H7c-1.417 0-2.5-1.065-2.5-2.457V11.99c0-.492.333-.82.833-.82.5 0 .834.328.834.82v6.553c0 .491.333.819.833.819h10c.5 0 .833-.328.833-.82V11.99c0-.492.334-.82.834-.82.5 0 .833.328.833.82zM9.25 7.648l1.917-1.883v8.682c0 .492.333.82.833.82.5 0 .833-.328.833-.82V5.765l1.917 1.883c.167.164.333.246.583.246.25 0 .417-.082.584-.246.333-.327.333-.819 0-1.146l-3.334-3.277c-.083-.082-.166-.164-.25-.164-.166-.081-.416-.081-.666 0-.084.082-.167.082-.25.164L8.083 6.502c-.333.327-.333.819 0 1.146.334.328.834.328 1.167 0z"/>
    </defs>
    <g fill="none" fill-rule="evenodd">
        <g>
            <g transform="translate(-836 -375) translate(836 375)">
                <path d="M0 0H24V24H0z"/>
                <use fill="#16325C" xlink:href="#a5ziq8s5ha"/>
            </g>
        </g>
    </g>
</svg>
