<svg xmlns="http://www.w3.org/2000/svg" width="28" height="28" viewBox="0 0 28 28">
    <g fill="none" fill-rule="evenodd">
        <g>
            <g>
                <g>
                    <g>
                        <g>
                            <path d="M0 0H28V28H0z" transform="translate(-34.000000, -187.000000) translate(16.000000, 111.000000) translate(0.000000, 60.000000) translate(12.000000, 10.000000) translate(6.000000, 6.000000)"/>
                            <path fill="#7B399B" d="M11.127 5.25h-.867l-.048.004-5.98.884c-.474.07-.799.509-.72.974l.741 4.391.021.093c.104.36.44.614.828.614H7.95v8.785l.007.144c.101.933.866 1.611 1.78 1.611h8.527l.148-.007.14-.02c.877-.155 1.5-.875 1.5-1.728V12.21h2.847c.42 0 .78-.299.849-.707l.741-4.391c.079-.465-.246-.904-.72-.974l-5.932-.878-.097-.01h-.866c-.406 0-.757.279-.842.669-.255 1.174-1.107 1.966-2.031 1.966-.924 0-1.776-.792-2.03-1.966-.086-.39-.437-.669-.843-.669zm-.644 1.69l.024.064c.599 1.521 1.935 2.571 3.493 2.571l.179-.004c1.481-.077 2.738-1.104 3.314-2.567l.024-.064h.125l5.005.741-.48 2.839H19.19c-.475 0-.86.378-.86.845v9.63c0 .033-.026.061-.058.064l-.055.002-8.48-.001c-.034 0-.063-.026-.066-.057l-.002-.054.001-9.584-.005-.098c-.05-.42-.414-.747-.855-.747H5.832l-.48-2.839 5-.74.13-.002z" transform="translate(-34.000000, -187.000000) translate(16.000000, 111.000000) translate(0.000000, 60.000000) translate(12.000000, 10.000000) translate(6.000000, 6.000000)"/>
                        </g>
                    </g>
                </g>
            </g>
        </g>
    </g>
</svg>
