<svg width="122" height="71" xmlns="http://www.w3.org/2000/svg">
    <path d="M21.092 9.007a7.691 7.691 0 0 0-4.53 1.522c-1.683 1.204-3.136 3.016-4.57 5.7-4.594 8.832-4.527 20.262.172 29.122.398.802.921 1.605 1.554 2.38l2.818 3.455 2.378-3.784a60.88 60.88 0 0 0 1.604-2.73c.215-.38.415-.736.603-1.058 3.846-6.985 6.2-14.635 6.81-22.13.197-1.792.366-4.473-.427-6.957-.63-2.187-2.084-4.049-3.891-4.972l-.186-.095-.235-.084a6.536 6.536 0 0 0-2.1-.37zM6.217 58.422c-1.623 0-3.09-.587-4.242-1.7-.935-.89-1.516-2.163-1.885-4.126L0 52.101l.976-.173.107.59c.292 1.508.788 2.626 1.473 3.33l.152.155.2.16a5.563 5.563 0 0 0 3.406 1.159l.17-.005c2.967-.17 5.335-1.87 6.859-3.136l2.67-2.218-2.334-2.583a16.96 16.96 0 0 1-2.46-3.515c-4.98-9.27-5.054-20.803-.196-30.102 1.522-2.851 3.16-4.85 5.009-6.11 1.517-1.049 3.297-1.626 5.016-1.626.975 0 1.893.178 2.728.53 2.204.945 3.915 3.018 4.693 5.691.724 2.471.64 5.127.464 7.4-.65 7.78-3.045 15.536-6.921 22.423-.452.859-1.01 1.806-1.598 2.81 0 0-.723 1.232-1.029 1.765l-1.939 3.367 3.573 1.391c1.435.558 2.875.842 4.281.842 1.574 0 3.095-.353 4.52-1.047 2.44-1.106 4.1-3.129 5.866-5.462 1.995-2.49 3.21-4.936 3.823-7.69l.022-.107c.069-.368.393-.397.49-.397.046 0 .093.005.138.014.165.034.337.22.374.405l.053.272.116.307c.607 1.55 3.719 7.578 4.794 9.181l.295.504.084.121c1.745 2.478 3.394 4.819 6.114 4.819.367 0 .734-.047 1.091-.14 2.95-.701 5.046-3.477 6.777-6.024 1.822-2.628 3.266-5.734 4.173-8.98.068-.262.234-.407.327-.413l.194-.018a.507.507 0 0 1 .436.301l2.052 4.2c1.932 3.948 3.937 7.657 7.199 9.657 1.519.972 3.4 1.509 5.294 1.509.897 0 1.776-.12 2.615-.358 2.437-.621 3.433-2.317 4.938-4.884l.258-.459.899.543-.265.472c-1.492 2.571-2.67 4.602-5.537 5.351-.918.246-1.865.372-2.817.373-2.034 0-4.042-.56-5.806-1.62-2.791-1.632-4.634-4.497-6.069-7.085l-2.84-5.118-2.793 5.143a17.82 17.82 0 0 1-1.326 2.121c-1.707 2.387-4.038 5.648-7.534 6.467a5.849 5.849 0 0 1-1.334.163c-2.981 0-5.11-2.906-6.664-5.026l-.073-.098-.409-.673a69.746 69.746 0 0 1-1.998-3.306l-2.366-4.176-2.95 3.767c-.36.457-.805 1.026-1.257 1.703-1.497 1.867-3.379 4.218-6.148 5.594a11.178 11.178 0 0 1-4.768 1.04c-2.137 0-4.4-.591-6.542-1.71l-2.093-1.095-1.661 1.7c-2.7 2.76-5.437 4.178-8.364 4.335h-.411zm101.85-57.26a1.89 1.89 0 0 0-.982.278c-.44.27-.752.7-.876 1.207l-4.88 20.153 5.478 1.383 4.88-20.152c.125-.509.05-1.033-.216-1.474a1.914 1.914 0 0 0-1.18-.894l-1.756-.443a1.906 1.906 0 0 0-.469-.059zM95.724 45.914l5.478 1.384 5.33-21.997-5.479-1.384-5.329 21.997zm.593 9.551 4.401-7.103-5.054-1.285.653 8.388zm-1.814-9.378 10.61-43.721c.2-.81.69-1.489 1.383-1.916a3.002 3.002 0 0 1 1.57-.451c.246 0 .492.031.731.094l1.758.442a3.043 3.043 0 0 1 1.873 1.413c.425.72.55 1.555.35 2.352l-.207.85 2.866.729-3.951 16.309-1.092-.273 3.685-15.19-1.771-.448-10.257 42.11-6.588 10.606-.96-12.906zm-69.95 23.776 97.282-14.729.164 1.138L24.72 71l-.165-1.136z" fill="#16325C" fill-rule="evenodd"/>
</svg>
