<svg xmlns="http://www.w3.org/2000/svg" width="25" height="24" viewBox="0 0 25 24">
    <defs>
        <filter id="73sw2zrila" color-interpolation-filters="auto">
            <feColorMatrix in="SourceGraphic" values="0 0 0 0 0.086275 0 0 0 0 0.196078 0 0 0 0 0.360784 0 0 0 1.000000 0"/>
        </filter>
    </defs>
    <g fill="none" fill-rule="evenodd">
        <g>
            <g>
                <g>
                    <g filter="url(#73sw2zrila)" transform="translate(-245 -176) translate(16 169) translate(179) translate(50.986 7)">
                        <g>
                            <path d="M0 0H23.994V24H0z"/>
                            <path fill="#16325C" d="M16.6 5c.413-.002.757.319.814.738l.008.117.056 10.281 2.132-2.152c.293-.296.742-.317 1.057-.068l.1.093c.281.308.3.78.064 1.11l-.088.105-3.506 3.537-.06.055-.098.07-.098.05-.08.03-.11.025c-.037.006-.076.009-.115.009l-.062-.002-.084-.01-.048-.011-.071-.021-.117-.052-.09-.057-.066-.055-3.54-3.568c-.325-.329-.336-.873-.023-1.215.282-.309.73-.349 1.054-.114l.103.089 2.11 2.131-.056-10.25c-.003-.475.362-.862.813-.865zm-9.282.21l.06.003.086.01.118.032.075.03.074.04.07.048.083.072 3.505 3.473c.33.326.344.87.034 1.216-.278.31-.726.355-1.052.123l-.104-.088-2.116-2.096.057 10.054c.002.475-.362.862-.814.865-.414.003-.758-.319-.814-.738l-.008-.117-.057-10.086-2.137 2.118c-.296.293-.744.31-1.057.058l-.099-.093c-.279-.311-.294-.783-.055-1.112l.09-.104 3.505-3.473.06-.054.091-.065.069-.037c.102-.05.216-.078.336-.078z"/>
                        </g>
                    </g>
                </g>
            </g>
        </g>
    </g>
</svg>
