<svg xmlns="http://www.w3.org/2000/svg" width="28" height="28" viewBox="0 0 28 28">
    <g fill="none" fill-rule="evenodd">
        <g>
            <g>
                <g>
                    <g>
                        <g>
                            <path d="M0 0H28V28H0z" transform="translate(-34.000000, -247.000000) translate(16.000000, 111.000000) translate(0.000000, 120.000000) translate(12.000000, 10.000000) translate(6.000000, 6.000000)"/>
                            <path fill="#2189E3" d="M7.713 23.917c-1.56 0-2.836-1.26-2.928-2.85l-.006-.185v-7.76c-.756-.508-1.257-1.39-1.257-2.393l-.001-2.26c-.014-.076-.021-.155-.021-.235 0-.076.007-.152.02-.227l.002-.13h.028c.066-.232.195-.442.375-.603l2.989-2.665c.38-.34.866-.526 1.368-.526h11.436c.502 0 .988.187 1.368.526l2.989 2.665c.185.165.311.376.375.603h.028l.002.129c.027.152.027.31 0 .462l-.002 2.26c0 1.004-.5 1.886-1.257 2.394v7.76c0 1.614-1.218 2.934-2.755 3.03l-.18.005H7.714zM18.798 12.82l-.099.09c-.48.419-1.1.67-1.776.67h-1.048c-.724 0-1.383-.288-1.875-.76-.491.472-1.15.76-1.875.76h-1.048c-.724 0-1.383-.288-1.875-.76-.491.472-1.15.76-1.875.76h-.872v7.302c0 .673.496 1.227 1.13 1.294l.128.007h7.334v-6.178c0-.599.47-1.084 1.049-1.084h3.143c.579 0 1.048.485 1.048 1.084v6.178c.65 0 1.186-.512 1.25-1.168l.007-.133V13.58h-.871c-.724 0-1.383-.288-1.875-.76zm-.188 3.835h-1.886v5.528h1.886v-5.528zm-5.658-1.734c.579 0 1.048.485 1.048 1.084v3.251c0 .599-.47 1.084-1.048 1.084H8.761c-.579 0-1.048-.485-1.048-1.084v-3.251c0-.599.47-1.084 1.048-1.084h4.191zm-.629 1.734H9.39v1.951h2.933v-1.95zM8.32 9.702H5.286v1.027c0 .526.384.96.878 1.02l.115.006h1.048c.51 0 .929-.396.986-.907l.007-.12-.001-1.026zm9.596 0h-3.033v1.027c0 .526.384.96.877 1.02l.116.006h1.048c.509 0 .928-.396.986-.907l.006-.12V9.703zm-4.798 0h-3.033v1.027c0 .526.384.96.877 1.02l.116.006h1.048c.509 0 .929-.396.986-.907l.007-.12-.001-1.026zm9.596 0H19.68v1.027c0 .526.383.96.877 1.02l.116.006h1.048c.509 0 .928-.396.986-.907l.006-.12V9.703zm-2.995-3.885H8.282c-.075 0-.149.021-.213.06l-.06.046-2.072 1.845h16.125l-2.07-1.845c-.058-.051-.126-.085-.2-.099l-.074-.007z" transform="translate(-34.000000, -247.000000) translate(16.000000, 111.000000) translate(0.000000, 120.000000) translate(12.000000, 10.000000) translate(6.000000, 6.000000)"/>
                        </g>
                    </g>
                </g>
            </g>
        </g>
    </g>
</svg>
