<svg xmlns="http://www.w3.org/2000/svg" width="24" height="24" viewBox="0 0 24 24">
    <g fill="none" fill-rule="evenodd">
        <g>
            <g>
                <g>
                    <path d="M0 0H24V24H0z" transform="translate(-271 -453) translate(-70 385) translate(341 68)"/>
                    <path fill="#8A98AD" d="M19.292 4.725c.416-.327 1.016-.297 1.398.089l.088.1c.323.421.294 1.029-.088 1.415L15.086 12l5.604 5.671.088.1c.323.421.294 1.029-.088 1.415-.414.419-1.084.419-1.498 0l-6.352-6.428-.089-.101c-.323-.42-.293-1.028.089-1.415l6.352-6.428zm-9.53 0c.416-.327 1.017-.297 1.398.089l.089.1c.323.421.293 1.029-.089 1.415L5.557 12l5.603 5.671.089.1c.323.421.293 1.029-.089 1.415-.413.419-1.083.419-1.497 0L3.31 12.758l-.088-.101c-.323-.42-.294-1.028.088-1.415l6.353-6.428z" transform="translate(-271 -453) translate(-70 385) translate(341 68)"/>
                </g>
            </g>
        </g>
    </g>
</svg>
