<svg xmlns="http://www.w3.org/2000/svg" xmlns:xlink="http://www.w3.org/1999/xlink" width="24" height="24" viewBox="0 0 24 24">
    <defs>
        <path id="bokqyggdka" d="M20.236 10.557l-7.302-7.302c-.17-.17-.34-.255-.594-.255H3.85c-.51 0-.85.34-.85.85v8.49c0 .254.085.424.255.594l7.302 7.302c.509.51 1.103.764 1.783.764.679 0 1.358-.255 1.783-.764l6.113-6.113c1.019-1.02 1.019-2.548 0-3.566zm-1.189 2.377l-6.113 6.113c-.34.34-.85.34-1.189 0L4.698 12V4.698H12l7.047 7.047c.34.34.34.85 0 1.189zM8.69 7.5c.17.17.254.34.254.594 0 .255-.085.425-.254.595-.17.17-.34.254-.595.254-.254 0-.424-.085-.594-.254-.085-.085-.17-.17-.17-.255-.085-.085-.085-.255-.085-.34 0-.254.085-.424.255-.594.255-.255.594-.34.934-.17.085 0 .17.085.255.17z"/>
    </defs>
    <g fill="none" fill-rule="evenodd">
        <g>
            <g transform="translate(-120 -1334) translate(120 1334)">
                <path d="M0 0H24V24H0z"/>
                <use fill="#16325C" xlink:href="#bokqyggdka"/>
            </g>
        </g>
    </g>
</svg>
