<svg width="28" height="28" xmlns="http://www.w3.org/2000/svg">
    <defs>
        <filter id="a">
            <feColorMatrix in="SourceGraphic" values="0 0 0 0 0.031373 0 0 0 0 0.650980 0 0 0 0 0.627451 0 0 0 1.000000 0"/>
        </filter>
        <filter id="b">
            <feColorMatrix in="SourceGraphic" values="0 0 0 0 0.031373 0 0 0 0 0.650980 0 0 0 0 0.627451 0 0 0 1.000000 0"/>
        </filter>
    </defs>
    <g filter="url(#a)" fill="none" fill-rule="evenodd">
        <path d="M0 0h28v28H0z"/>
        <g filter="url(#b)">
            <g fill="#000" fill-rule="nonzero">
                <path d="M5.11 11.278h15.304l-1.668 1.66c-.4.399-.4 1.045 0 1.444.4.398 1.05.398 1.45 0l3.42-3.403a1.018 1.018 0 0 0 0-1.444l-3.42-3.403a1.03 1.03 0 0 0-1.716.458c-.095.352.007.728.266.986l1.668 1.66H5.11c-.566 0-1.026.457-1.026 1.021 0 .564.46 1.02 1.026 1.02zM22.89 16.722H7.587l1.668-1.66c.4-.399.4-1.045 0-1.444a1.03 1.03 0 0 0-1.45 0l-3.42 3.403a1.018 1.018 0 0 0 0 1.444l3.42 3.403c.4.398 1.05.398 1.45 0 .4-.399.4-1.045 0-1.444l-1.668-1.66H22.89c.566 0 1.026-.457 1.026-1.021 0-.564-.46-1.02-1.026-1.02z"/>
            </g>
        </g>
    </g>
</svg>
