<svg xmlns="http://www.w3.org/2000/svg" xmlns:xlink="http://www.w3.org/1999/xlink" width="26" height="26" viewBox="0 0 26 26">
    <defs>
        <path id="r62619huqa" d="M22.506 11.619L20.07 9.18c-.163-.162-.325-.243-.569-.243h-2.438v-3.25c0-.488-.325-.813-.812-.813H4.062c-.487 0-.812.325-.812.813V16.25c0 .488.325.813.813.813H5.2c-.244.406-.325.812-.325 1.218 0 1.544 1.3 2.844 2.844 2.844 1.543 0 2.843-1.3 2.843-2.844 0-.406-.08-.812-.324-1.218h5.443c-.162.406-.325.812-.325 1.218 0 1.544 1.3 2.844 2.844 2.844 1.544 0 2.844-1.3 2.844-2.844 0-.406-.082-.812-.325-1.218h1.218c.488 0 .813-.325.813-.813v-4.063c0-.243-.081-.406-.244-.568zM4.875 6.5h10.563V15.438H4.874V6.5zm4.063 11.781c0 .65-.57 1.219-1.22 1.219S6.5 18.931 6.5 18.281c0-.65.569-1.218 1.219-1.218.65 0 1.218.568 1.218 1.218zm10.562 0c0 .65-.569 1.219-1.219 1.219-.65 0-1.218-.569-1.218-1.219 0-.65.568-1.218 1.218-1.218s1.219.568 1.219 1.218zm1.625-2.843h-4.063v-4.876h2.113l1.95 1.95v2.925z"/>
    </defs>
    <g fill="none" fill-rule="evenodd">
        <g>
            <g>
                <g>
                    <g>
                        <g transform="translate(-43.000000, -383.000000) translate(20.000000, 217.000000) translate(0.000000, 144.000000) translate(13.000000, 12.000000) translate(10.000000, 10.000000)">
                            <path d="M0 0H26V26H0z"/>
                            <use fill="#2189E3" xlink:href="#r62619huqa"/>
                        </g>
                    </g>
                </g>
            </g>
        </g>
    </g>
</svg>
